{
	"asset":{
		"generator":"Khronos glTF Blender I/O v4.5.47",
		"version":"2.0"
	},
	"scene":0,
	"scenes":[
		{
			"name":"Scene",
			"nodes":[
				0,
				1,
				2,
				3,
				4,
				5
			]
		}
	],
	"nodes":[
		{
			"mesh":0,
			"name":"Cube",
			"rotation":[
				0,
				-0.7071068286895752,
				0,
				0.7071068286895752
			],
			"translation":[
				3.0999999046325684,
				0.30000001192092896,
				4.099999904632568
			]
		},
		{
			"mesh":1,
			"name":"Cube.001",
			"rotation":[
				0,
				-0.7071068286895752,
				0,
				0.7071068286895752
			],
			"translation":[
				1.5249998569488525,
				0.2999999523162842,
				4.099999904632568
			]
		},
		{
			"mesh":2,
			"name":"Cube.002",
			"rotation":[
				0,
				-0.7071068286895752,
				0,
				0.7071068286895752
			],
			"translation":[
				4.675000190734863,
				0.30000001192092896,
				4.099999904632568
			]
		},
		{
			"mesh":3,
			"name":"Cube.006",
			"rotation":[
				0,
				-0.7071068286895752,
				0,
				0.7071068286895752
			],
			"translation":[
				3.0999999046325684,
				0.5,
				4.099999904632568
			]
		},
		{
			"mesh":4,
			"name":"Cube.007",
			"translation":[
				3.0999999046325684,
				0.30000001192092896,
				4.099999904632568
			]
		},
		{
			"mesh":5,
			"name":"Cube.008",
			"translation":[
				4.300000190734863,
				0.6000000238418579,
				4.099999904632568
			]
		}
	],
	"materials":[
		{
			"doubleSided":true,
			"name":"FloorWood",
			"pbrMetallicRoughness":{
				"baseColorTexture":{
					"index":0
				},
				"metallicFactor":0,
				"roughnessFactor":0.8090909123420715
			}
		},
		{
			"doubleSided":true,
			"name":"Wood",
			"pbrMetallicRoughness":{
				"baseColorTexture":{
					"index":1
				},
				"metallicFactor":0,
				"roughnessFactor":0.8090909123420715
			}
		},
		{
			"doubleSided":true,
			"name":"Cloth",
			"pbrMetallicRoughness":{
				"baseColorTexture":{
					"index":2
				},
				"metallicFactor":0,
				"roughnessFactor":0.8090909123420715
			}
		},
		{
			"doubleSided":true,
			"name":"Matrice",
			"pbrMetallicRoughness":{
				"baseColorTexture":{
					"index":3
				},
				"metallicFactor":0,
				"roughnessFactor":0.8090909123420715
			}
		}
	],
	"meshes":[
		{
			"name":"Cube.002",
			"primitives":[
				{
					"attributes":{
						"POSITION":0,
						"NORMAL":1,
						"TEXCOORD_0":2
					},
					"indices":3,
					"material":0
				}
			]
		},
		{
			"name":"Cube.003",
			"primitives":[
				{
					"attributes":{
						"POSITION":4,
						"NORMAL":5,
						"TEXCOORD_0":6
					},
					"indices":7,
					"material":1
				}
			]
		},
		{
			"name":"Cube.004",
			"primitives":[
				{
					"attributes":{
						"POSITION":8,
						"NORMAL":9,
						"TEXCOORD_0":10
					},
					"indices":11,
					"material":1
				}
			]
		},
		{
			"name":"Cube.009",
			"primitives":[
				{
					"attributes":{
						"POSITION":12,
						"NORMAL":13,
						"TEXCOORD_0":14
					},
					"indices":15,
					"material":2
				}
			]
		},
		{
			"name":"Cube.010",
			"primitives":[
				{
					"attributes":{
						"POSITION":16,
						"NORMAL":17,
						"TEXCOORD_0":18
					},
					"indices":19,
					"material":3
				}
			]
		},
		{
			"name":"Cube",
			"primitives":[
				{
					"attributes":{
						"POSITION":20,
						"NORMAL":21,
						"TEXCOORD_0":22
					},
					"indices":23,
					"material":3
				}
			]
		}
	],
	"textures":[
		{
			"sampler":0,
			"source":0
		},
		{
			"sampler":0,
			"source":0
		},
		{
			"sampler":0,
			"source":0
		},
		{
			"sampler":0,
			"source":0
		}
	],
	"images":[
		{
			"mimeType":"image/png",
			"name":"Wood",
			"uri":"Wood.png"
		}
	],
	"accessors":[
		{
			"bufferView":0,
			"componentType":5126,
			"count":248,
			"max":[
				0.75,
				-0.05273053050041199,
				1.5
			],
			"min":[
				-0.75,
				-0.10273054242134094,
				-1.5
			],
			"type":"VEC3"
		},
		{
			"bufferView":1,
			"componentType":5126,
			"count":248,
			"type":"VEC3"
		},
		{
			"bufferView":2,
			"componentType":5126,
			"count":248,
			"type":"VEC2"
		},
		{
			"bufferView":3,
			"componentType":5123,
			"count":636,
			"type":"SCALAR"
		},
		{
			"bufferView":4,
			"componentType":5126,
			"count":218,
			"max":[
				0.8250001072883606,
				0.8500000238418579,
				0.07500004768371582
			],
			"min":[
				-0.8250000476837158,
				-0.30000001192092896,
				-0.07500004768371582
			],
			"type":"VEC3"
		},
		{
			"bufferView":5,
			"componentType":5126,
			"count":218,
			"type":"VEC3"
		},
		{
			"bufferView":6,
			"componentType":5126,
			"count":218,
			"type":"VEC2"
		},
		{
			"bufferView":7,
			"componentType":5123,
			"count":372,
			"type":"SCALAR"
		},
		{
			"bufferView":8,
			"componentType":5126,
			"count":308,
			"max":[
				0.8250001072883606,
				1.2000000476837158,
				0.07500029355287552
			],
			"min":[
				-0.8250000476837158,
				-0.30000001192092896,
				-0.07500029355287552
			],
			"type":"VEC3"
		},
		{
			"bufferView":9,
			"componentType":5126,
			"count":308,
			"type":"VEC3"
		},
		{
			"bufferView":10,
			"componentType":5126,
			"count":308,
			"type":"VEC2"
		},
		{
			"bufferView":11,
			"componentType":5123,
			"count":768,
			"type":"SCALAR"
		},
		{
			"bufferView":12,
			"componentType":5126,
			"count":224,
			"max":[
				0.8784672021865845,
				0.023779522627592087,
				1.5172548294067383
			],
			"min":[
				-0.8619028329849243,
				-0.38046830892562866,
				-0.8267240524291992
			],
			"type":"VEC3"
		},
		{
			"bufferView":13,
			"componentType":5126,
			"count":224,
			"type":"VEC3"
		},
		{
			"bufferView":14,
			"componentType":5126,
			"count":224,
			"type":"VEC2"
		},
		{
			"bufferView":15,
			"componentType":5123,
			"count":336,
			"type":"SCALAR"
		},
		{
			"bufferView":16,
			"componentType":5126,
			"count":56,
			"max":[
				1.5,
				0.09738108515739441,
				0.75
			],
			"min":[
				-1.5,
				-0.05224999785423279,
				-0.75
			],
			"type":"VEC3"
		},
		{
			"bufferView":17,
			"componentType":5126,
			"count":56,
			"type":"VEC3"
		},
		{
			"bufferView":18,
			"componentType":5126,
			"count":56,
			"type":"VEC2"
		},
		{
			"bufferView":19,
			"componentType":5123,
			"count":84,
			"type":"SCALAR"
		},
		{
			"bufferView":20,
			"componentType":5126,
			"count":126,
			"max":[
				0.2790055572986603,
				0.06632525473833084,
				0.7109314799308777
			],
			"min":[
				-0.3797776401042938,
				-0.20261892676353455,
				-0.7046164870262146
			],
			"type":"VEC3"
		},
		{
			"bufferView":21,
			"componentType":5126,
			"count":126,
			"type":"VEC3"
		},
		{
			"bufferView":22,
			"componentType":5126,
			"count":126,
			"type":"VEC2"
		},
		{
			"bufferView":23,
			"componentType":5123,
			"count":192,
			"type":"SCALAR"
		}
	],
	"bufferViews":[
		{
			"buffer":0,
			"byteLength":2976,
			"byteOffset":0,
			"target":34962
		},
		{
			"buffer":0,
			"byteLength":2976,
			"byteOffset":2976,
			"target":34962
		},
		{
			"buffer":0,
			"byteLength":1984,
			"byteOffset":5952,
			"target":34962
		},
		{
			"buffer":0,
			"byteLength":1272,
			"byteOffset":7936,
			"target":34963
		},
		{
			"buffer":0,
			"byteLength":2616,
			"byteOffset":9208,
			"target":34962
		},
		{
			"buffer":0,
			"byteLength":2616,
			"byteOffset":11824,
			"target":34962
		},
		{
			"buffer":0,
			"byteLength":1744,
			"byteOffset":14440,
			"target":34962
		},
		{
			"buffer":0,
			"byteLength":744,
			"byteOffset":16184,
			"target":34963
		},
		{
			"buffer":0,
			"byteLength":3696,
			"byteOffset":16928,
			"target":34962
		},
		{
			"buffer":0,
			"byteLength":3696,
			"byteOffset":20624,
			"target":34962
		},
		{
			"buffer":0,
			"byteLength":2464,
			"byteOffset":24320,
			"target":34962
		},
		{
			"buffer":0,
			"byteLength":1536,
			"byteOffset":26784,
			"target":34963
		},
		{
			"buffer":0,
			"byteLength":2688,
			"byteOffset":28320,
			"target":34962
		},
		{
			"buffer":0,
			"byteLength":2688,
			"byteOffset":31008,
			"target":34962
		},
		{
			"buffer":0,
			"byteLength":1792,
			"byteOffset":33696,
			"target":34962
		},
		{
			"buffer":0,
			"byteLength":672,
			"byteOffset":35488,
			"target":34963
		},
		{
			"buffer":0,
			"byteLength":672,
			"byteOffset":36160,
			"target":34962
		},
		{
			"buffer":0,
			"byteLength":672,
			"byteOffset":36832,
			"target":34962
		},
		{
			"buffer":0,
			"byteLength":448,
			"byteOffset":37504,
			"target":34962
		},
		{
			"buffer":0,
			"byteLength":168,
			"byteOffset":37952,
			"target":34963
		},
		{
			"buffer":0,
			"byteLength":1512,
			"byteOffset":38120,
			"target":34962
		},
		{
			"buffer":0,
			"byteLength":1512,
			"byteOffset":39632,
			"target":34962
		},
		{
			"buffer":0,
			"byteLength":1008,
			"byteOffset":41144,
			"target":34962
		},
		{
			"buffer":0,
			"byteLength":384,
			"byteOffset":42152,
			"target":34963
		}
	],
	"samplers":[
		{
			"magFilter":9728,
			"minFilter":9984
		}
	],
	"buffers":[
		{
			"byteLength":42536,
			"uri":"Bed.bin"
		}
	]
}
