{
	"asset":{
		"generator":"Khronos glTF Blender I/O v4.5.47",
		"version":"2.0"
	},
	"scene":0,
	"scenes":[
		{
			"name":"Scene",
			"nodes":[
				0,
				1,
				2,
				3,
				4,
				5,
				6,
				7,
				8,
				9
			]
		}
	],
	"nodes":[
		{
			"mesh":0,
			"name":"Cube.032",
			"rotation":[
				-0.733482301235199,
				-0.6797086000442505,
				0,
				1.1479839656658442e-07
			],
			"translation":[
				2.6980910301208496,
				1.0915374755859375,
				-4.267785549163818
			]
		},
		{
			"mesh":1,
			"name":"Cube.033",
			"rotation":[
				0,
				0,
				-0.7457489371299744,
				0.6662271618843079
			],
			"translation":[
				2.71330189704895,
				1.253475308418274,
				-4.698968410491943
			]
		},
		{
			"mesh":2,
			"name":"Cube.034",
			"rotation":[
				-0.520206868648529,
				-0.4789406657218933,
				0.5202075242996216,
				0.47894126176834106
			],
			"translation":[
				3.139364719390869,
				2.093451976776123,
				-4.560651779174805
			]
		},
		{
			"mesh":3,
			"name":"Cube.035",
			"rotation":[
				-0.5288506150245667,
				0.46938058733940125,
				-0.5288493633270264,
				0.469379723072052
			],
			"translation":[
				2.708181858062744,
				2.2552876472473145,
				-4.576912879943848
			]
		},
		{
			"mesh":4,
			"name":"Cube.036",
			"rotation":[
				0.2431056648492813,
				-0.9699997901916504,
				0,
				1.5803301778305467e-07
			],
			"translation":[
				3.053598165512085,
				1.4424386024475098,
				-4.146078586578369
			]
		},
		{
			"mesh":5,
			"name":"Cube.037",
			"rotation":[
				0.294371634721756,
				-0.955663800239563,
				0.005882945843040943,
				0.0041789826937019825
			],
			"translation":[
				3.3602898120880127,
				1.4424386024475098,
				-4.146078586578369
			]
		},
		{
			"mesh":6,
			"name":"Cube.038",
			"translation":[
				3.239074945449829,
				0.6475732922554016,
				-4.696025848388672
			]
		},
		{
			"mesh":7,
			"name":"Cube.039",
			"rotation":[
				0,
				0,
				-0.2431056648492813,
				0.9699997901916504
			],
			"translation":[
				3.784773111343384,
				0.6210044026374817,
				-4.692023754119873
			]
		},
		{
			"mesh":8,
			"name":"Cube.040",
			"translation":[
				2.8985631465911865,
				0.6475732922554016,
				-4.696025848388672
			]
		},
		{
			"mesh":9,
			"name":"Cube.041",
			"rotation":[
				0,
				-1,
				0,
				1.6292068494294654e-07
			],
			"translation":[
				2.3602850437164307,
				0.6475732922554016,
				-4.116438865661621
			]
		}
	],
	"materials":[
		{
			"doubleSided":true,
			"name":"Lether",
			"pbrMetallicRoughness":{
				"baseColorFactor":[
					0.800000011920929,
					0.800000011920929,
					0.800000011920929,
					1
				],
				"metallicFactor":0,
				"roughnessFactor":0.8090909123420715
			}
		},
		{
			"doubleSided":true,
			"name":"Cloth",
			"pbrMetallicRoughness":{
				"baseColorFactor":[
					0.800000011920929,
					0.800000011920929,
					0.800000011920929,
					1
				],
				"metallicFactor":0,
				"roughnessFactor":0.8090909123420715
			}
		}
	],
	"meshes":[
		{
			"name":"Cube.033",
			"primitives":[
				{
					"attributes":{
						"POSITION":0,
						"NORMAL":1,
						"TEXCOORD_0":2
					},
					"indices":3,
					"material":0
				},
				{
					"attributes":{
						"POSITION":4,
						"NORMAL":5,
						"TEXCOORD_0":6
					},
					"indices":7,
					"material":1
				}
			]
		},
		{
			"name":"Cube.034",
			"primitives":[
				{
					"attributes":{
						"POSITION":8,
						"NORMAL":9,
						"TEXCOORD_0":10
					},
					"indices":3,
					"material":0
				},
				{
					"attributes":{
						"POSITION":11,
						"NORMAL":12,
						"TEXCOORD_0":13
					},
					"indices":7,
					"material":1
				}
			]
		},
		{
			"name":"Cube.035",
			"primitives":[
				{
					"attributes":{
						"POSITION":14,
						"NORMAL":15,
						"TEXCOORD_0":16
					},
					"indices":3,
					"material":0
				},
				{
					"attributes":{
						"POSITION":17,
						"NORMAL":18,
						"TEXCOORD_0":19
					},
					"indices":7,
					"material":1
				}
			]
		},
		{
			"name":"Cube.036",
			"primitives":[
				{
					"attributes":{
						"POSITION":20,
						"NORMAL":21,
						"TEXCOORD_0":22
					},
					"indices":3,
					"material":0
				},
				{
					"attributes":{
						"POSITION":23,
						"NORMAL":24,
						"TEXCOORD_0":25
					},
					"indices":7,
					"material":1
				}
			]
		},
		{
			"name":"Cube.037",
			"primitives":[
				{
					"attributes":{
						"POSITION":26,
						"NORMAL":27,
						"TEXCOORD_0":28
					},
					"indices":3,
					"material":0
				},
				{
					"attributes":{
						"POSITION":29,
						"NORMAL":30,
						"TEXCOORD_0":31
					},
					"indices":7,
					"material":1
				}
			]
		},
		{
			"name":"Cube.038",
			"primitives":[
				{
					"attributes":{
						"POSITION":32,
						"NORMAL":33,
						"TEXCOORD_0":34
					},
					"indices":3,
					"material":0
				},
				{
					"attributes":{
						"POSITION":35,
						"NORMAL":36,
						"TEXCOORD_0":37
					},
					"indices":7,
					"material":1
				}
			]
		},
		{
			"name":"Cube.041",
			"primitives":[
				{
					"attributes":{
						"POSITION":38,
						"NORMAL":39,
						"TEXCOORD_0":40
					},
					"indices":3,
					"material":0
				},
				{
					"attributes":{
						"POSITION":41,
						"NORMAL":42,
						"TEXCOORD_0":43
					},
					"indices":7,
					"material":1
				}
			]
		},
		{
			"name":"Cube.042",
			"primitives":[
				{
					"attributes":{
						"POSITION":44,
						"NORMAL":45,
						"TEXCOORD_0":46
					},
					"indices":3,
					"material":0
				},
				{
					"attributes":{
						"POSITION":47,
						"NORMAL":48,
						"TEXCOORD_0":49
					},
					"indices":7,
					"material":1
				}
			]
		},
		{
			"name":"Cube.043",
			"primitives":[
				{
					"attributes":{
						"POSITION":50,
						"NORMAL":51,
						"TEXCOORD_0":52
					},
					"indices":3,
					"material":0
				},
				{
					"attributes":{
						"POSITION":53,
						"NORMAL":54,
						"TEXCOORD_0":55
					},
					"indices":7,
					"material":1
				}
			]
		},
		{
			"name":"Cube.044",
			"primitives":[
				{
					"attributes":{
						"POSITION":56,
						"NORMAL":57,
						"TEXCOORD_0":58
					},
					"indices":3,
					"material":0
				},
				{
					"attributes":{
						"POSITION":59,
						"NORMAL":60,
						"TEXCOORD_0":61
					},
					"indices":7,
					"material":1
				}
			]
		}
	],
	"accessors":[
		{
			"bufferView":0,
			"componentType":5126,
			"count":88,
			"max":[
				0.0943346917629242,
				0.1448131799697876,
				0.6760053038597107
			],
			"min":[
				-0.22228190302848816,
				-0.5717689990997314,
				-0.203870952129364
			],
			"type":"VEC3"
		},
		{
			"bufferView":1,
			"componentType":5126,
			"count":88,
			"type":"VEC3"
		},
		{
			"bufferView":2,
			"componentType":5126,
			"count":88,
			"type":"VEC2"
		},
		{
			"bufferView":3,
			"componentType":5123,
			"count":162,
			"type":"SCALAR"
		},
		{
			"bufferView":4,
			"componentType":5126,
			"count":12,
			"max":[
				0.04677862673997879,
				0.12175709009170532,
				0.6342733502388
			],
			"min":[
				-0.18775179982185364,
				-0.5466852784156799,
				-0.16015195846557617
			],
			"type":"VEC3"
		},
		{
			"bufferView":5,
			"componentType":5126,
			"count":12,
			"type":"VEC3"
		},
		{
			"bufferView":6,
			"componentType":5126,
			"count":12,
			"type":"VEC2"
		},
		{
			"bufferView":7,
			"componentType":5123,
			"count":18,
			"type":"SCALAR"
		},
		{
			"bufferView":8,
			"componentType":5126,
			"count":88,
			"max":[
				0.0943346917629242,
				0.1448131799697876,
				0.6760053038597107
			],
			"min":[
				-0.22228190302848816,
				-0.5717689990997314,
				-0.203870952129364
			],
			"type":"VEC3"
		},
		{
			"bufferView":9,
			"componentType":5126,
			"count":88,
			"type":"VEC3"
		},
		{
			"bufferView":10,
			"componentType":5126,
			"count":88,
			"type":"VEC2"
		},
		{
			"bufferView":11,
			"componentType":5126,
			"count":12,
			"max":[
				0.04677862673997879,
				0.12175709009170532,
				0.6342733502388
			],
			"min":[
				-0.18775179982185364,
				-0.5466852784156799,
				-0.16015195846557617
			],
			"type":"VEC3"
		},
		{
			"bufferView":12,
			"componentType":5126,
			"count":12,
			"type":"VEC3"
		},
		{
			"bufferView":13,
			"componentType":5126,
			"count":12,
			"type":"VEC2"
		},
		{
			"bufferView":14,
			"componentType":5126,
			"count":88,
			"max":[
				0.0943346917629242,
				0.1448131799697876,
				0.6760053038597107
			],
			"min":[
				-0.22228190302848816,
				-0.5717689990997314,
				-0.203870952129364
			],
			"type":"VEC3"
		},
		{
			"bufferView":15,
			"componentType":5126,
			"count":88,
			"type":"VEC3"
		},
		{
			"bufferView":16,
			"componentType":5126,
			"count":88,
			"type":"VEC2"
		},
		{
			"bufferView":17,
			"componentType":5126,
			"count":12,
			"max":[
				0.04677862673997879,
				0.12175709009170532,
				0.6342733502388
			],
			"min":[
				-0.18775179982185364,
				-0.5466852784156799,
				-0.16015195846557617
			],
			"type":"VEC3"
		},
		{
			"bufferView":18,
			"componentType":5126,
			"count":12,
			"type":"VEC3"
		},
		{
			"bufferView":19,
			"componentType":5126,
			"count":12,
			"type":"VEC2"
		},
		{
			"bufferView":20,
			"componentType":5126,
			"count":88,
			"max":[
				0.0943346917629242,
				0.1448131799697876,
				0.6760053038597107
			],
			"min":[
				-0.22228190302848816,
				-0.5717689990997314,
				-0.203870952129364
			],
			"type":"VEC3"
		},
		{
			"bufferView":21,
			"componentType":5126,
			"count":88,
			"type":"VEC3"
		},
		{
			"bufferView":22,
			"componentType":5126,
			"count":88,
			"type":"VEC2"
		},
		{
			"bufferView":23,
			"componentType":5126,
			"count":12,
			"max":[
				0.04677862673997879,
				0.12175709009170532,
				0.6342733502388
			],
			"min":[
				-0.18775179982185364,
				-0.5466852784156799,
				-0.16015195846557617
			],
			"type":"VEC3"
		},
		{
			"bufferView":24,
			"componentType":5126,
			"count":12,
			"type":"VEC3"
		},
		{
			"bufferView":25,
			"componentType":5126,
			"count":12,
			"type":"VEC2"
		},
		{
			"bufferView":26,
			"componentType":5126,
			"count":88,
			"max":[
				0.0943346917629242,
				0.1448131799697876,
				0.6760053038597107
			],
			"min":[
				-0.22228190302848816,
				-0.5717689990997314,
				-0.203870952129364
			],
			"type":"VEC3"
		},
		{
			"bufferView":27,
			"componentType":5126,
			"count":88,
			"type":"VEC3"
		},
		{
			"bufferView":28,
			"componentType":5126,
			"count":88,
			"type":"VEC2"
		},
		{
			"bufferView":29,
			"componentType":5126,
			"count":12,
			"max":[
				0.04677862673997879,
				0.12175709009170532,
				0.6342733502388
			],
			"min":[
				-0.18775179982185364,
				-0.5466852784156799,
				-0.16015195846557617
			],
			"type":"VEC3"
		},
		{
			"bufferView":30,
			"componentType":5126,
			"count":12,
			"type":"VEC3"
		},
		{
			"bufferView":31,
			"componentType":5126,
			"count":12,
			"type":"VEC2"
		},
		{
			"bufferView":32,
			"componentType":5126,
			"count":88,
			"max":[
				0.0943346917629242,
				0.1448131799697876,
				0.6760053038597107
			],
			"min":[
				-0.22228190302848816,
				-0.5717689990997314,
				-0.203870952129364
			],
			"type":"VEC3"
		},
		{
			"bufferView":33,
			"componentType":5126,
			"count":88,
			"type":"VEC3"
		},
		{
			"bufferView":34,
			"componentType":5126,
			"count":88,
			"type":"VEC2"
		},
		{
			"bufferView":35,
			"componentType":5126,
			"count":12,
			"max":[
				0.04677862673997879,
				0.12175709009170532,
				0.6342733502388
			],
			"min":[
				-0.18775179982185364,
				-0.5466852784156799,
				-0.16015195846557617
			],
			"type":"VEC3"
		},
		{
			"bufferView":36,
			"componentType":5126,
			"count":12,
			"type":"VEC3"
		},
		{
			"bufferView":37,
			"componentType":5126,
			"count":12,
			"type":"VEC2"
		},
		{
			"bufferView":38,
			"componentType":5126,
			"count":88,
			"max":[
				0.0943346917629242,
				0.1448131799697876,
				0.6760053038597107
			],
			"min":[
				-0.22228190302848816,
				-0.5717689990997314,
				-0.203870952129364
			],
			"type":"VEC3"
		},
		{
			"bufferView":39,
			"componentType":5126,
			"count":88,
			"type":"VEC3"
		},
		{
			"bufferView":40,
			"componentType":5126,
			"count":88,
			"type":"VEC2"
		},
		{
			"bufferView":41,
			"componentType":5126,
			"count":12,
			"max":[
				0.04677862673997879,
				0.12175709009170532,
				0.6342733502388
			],
			"min":[
				-0.18775179982185364,
				-0.5466852784156799,
				-0.16015195846557617
			],
			"type":"VEC3"
		},
		{
			"bufferView":42,
			"componentType":5126,
			"count":12,
			"type":"VEC3"
		},
		{
			"bufferView":43,
			"componentType":5126,
			"count":12,
			"type":"VEC2"
		},
		{
			"bufferView":44,
			"componentType":5126,
			"count":88,
			"max":[
				0.0943346917629242,
				0.1448131799697876,
				0.6760053038597107
			],
			"min":[
				-0.22228190302848816,
				-0.5717689990997314,
				-0.203870952129364
			],
			"type":"VEC3"
		},
		{
			"bufferView":45,
			"componentType":5126,
			"count":88,
			"type":"VEC3"
		},
		{
			"bufferView":46,
			"componentType":5126,
			"count":88,
			"type":"VEC2"
		},
		{
			"bufferView":47,
			"componentType":5126,
			"count":12,
			"max":[
				0.04677862673997879,
				0.12175709009170532,
				0.6342733502388
			],
			"min":[
				-0.18775179982185364,
				-0.5466852784156799,
				-0.16015195846557617
			],
			"type":"VEC3"
		},
		{
			"bufferView":48,
			"componentType":5126,
			"count":12,
			"type":"VEC3"
		},
		{
			"bufferView":49,
			"componentType":5126,
			"count":12,
			"type":"VEC2"
		},
		{
			"bufferView":50,
			"componentType":5126,
			"count":88,
			"max":[
				0.0943346917629242,
				0.1448131799697876,
				0.6760053038597107
			],
			"min":[
				-0.22228190302848816,
				-0.5717689990997314,
				-0.203870952129364
			],
			"type":"VEC3"
		},
		{
			"bufferView":51,
			"componentType":5126,
			"count":88,
			"type":"VEC3"
		},
		{
			"bufferView":52,
			"componentType":5126,
			"count":88,
			"type":"VEC2"
		},
		{
			"bufferView":53,
			"componentType":5126,
			"count":12,
			"max":[
				0.04677862673997879,
				0.12175709009170532,
				0.6342733502388
			],
			"min":[
				-0.18775179982185364,
				-0.5466852784156799,
				-0.16015195846557617
			],
			"type":"VEC3"
		},
		{
			"bufferView":54,
			"componentType":5126,
			"count":12,
			"type":"VEC3"
		},
		{
			"bufferView":55,
			"componentType":5126,
			"count":12,
			"type":"VEC2"
		},
		{
			"bufferView":56,
			"componentType":5126,
			"count":88,
			"max":[
				0.0943346917629242,
				0.1448131799697876,
				0.6760053038597107
			],
			"min":[
				-0.22228190302848816,
				-0.5717689990997314,
				-0.203870952129364
			],
			"type":"VEC3"
		},
		{
			"bufferView":57,
			"componentType":5126,
			"count":88,
			"type":"VEC3"
		},
		{
			"bufferView":58,
			"componentType":5126,
			"count":88,
			"type":"VEC2"
		},
		{
			"bufferView":59,
			"componentType":5126,
			"count":12,
			"max":[
				0.04677862673997879,
				0.12175709009170532,
				0.6342733502388
			],
			"min":[
				-0.18775179982185364,
				-0.5466852784156799,
				-0.16015195846557617
			],
			"type":"VEC3"
		},
		{
			"bufferView":60,
			"componentType":5126,
			"count":12,
			"type":"VEC3"
		},
		{
			"bufferView":61,
			"componentType":5126,
			"count":12,
			"type":"VEC2"
		}
	],
	"bufferViews":[
		{
			"buffer":0,
			"byteLength":1056,
			"byteOffset":0,
			"target":34962
		},
		{
			"buffer":0,
			"byteLength":1056,
			"byteOffset":1056,
			"target":34962
		},
		{
			"buffer":0,
			"byteLength":704,
			"byteOffset":2112,
			"target":34962
		},
		{
			"buffer":0,
			"byteLength":324,
			"byteOffset":2816,
			"target":34963
		},
		{
			"buffer":0,
			"byteLength":144,
			"byteOffset":3140,
			"target":34962
		},
		{
			"buffer":0,
			"byteLength":144,
			"byteOffset":3284,
			"target":34962
		},
		{
			"buffer":0,
			"byteLength":96,
			"byteOffset":3428,
			"target":34962
		},
		{
			"buffer":0,
			"byteLength":36,
			"byteOffset":3524,
			"target":34963
		},
		{
			"buffer":0,
			"byteLength":1056,
			"byteOffset":3560,
			"target":34962
		},
		{
			"buffer":0,
			"byteLength":1056,
			"byteOffset":4616,
			"target":34962
		},
		{
			"buffer":0,
			"byteLength":704,
			"byteOffset":5672,
			"target":34962
		},
		{
			"buffer":0,
			"byteLength":144,
			"byteOffset":6376,
			"target":34962
		},
		{
			"buffer":0,
			"byteLength":144,
			"byteOffset":6520,
			"target":34962
		},
		{
			"buffer":0,
			"byteLength":96,
			"byteOffset":6664,
			"target":34962
		},
		{
			"buffer":0,
			"byteLength":1056,
			"byteOffset":6760,
			"target":34962
		},
		{
			"buffer":0,
			"byteLength":1056,
			"byteOffset":7816,
			"target":34962
		},
		{
			"buffer":0,
			"byteLength":704,
			"byteOffset":8872,
			"target":34962
		},
		{
			"buffer":0,
			"byteLength":144,
			"byteOffset":9576,
			"target":34962
		},
		{
			"buffer":0,
			"byteLength":144,
			"byteOffset":9720,
			"target":34962
		},
		{
			"buffer":0,
			"byteLength":96,
			"byteOffset":9864,
			"target":34962
		},
		{
			"buffer":0,
			"byteLength":1056,
			"byteOffset":9960,
			"target":34962
		},
		{
			"buffer":0,
			"byteLength":1056,
			"byteOffset":11016,
			"target":34962
		},
		{
			"buffer":0,
			"byteLength":704,
			"byteOffset":12072,
			"target":34962
		},
		{
			"buffer":0,
			"byteLength":144,
			"byteOffset":12776,
			"target":34962
		},
		{
			"buffer":0,
			"byteLength":144,
			"byteOffset":12920,
			"target":34962
		},
		{
			"buffer":0,
			"byteLength":96,
			"byteOffset":13064,
			"target":34962
		},
		{
			"buffer":0,
			"byteLength":1056,
			"byteOffset":13160,
			"target":34962
		},
		{
			"buffer":0,
			"byteLength":1056,
			"byteOffset":14216,
			"target":34962
		},
		{
			"buffer":0,
			"byteLength":704,
			"byteOffset":15272,
			"target":34962
		},
		{
			"buffer":0,
			"byteLength":144,
			"byteOffset":15976,
			"target":34962
		},
		{
			"buffer":0,
			"byteLength":144,
			"byteOffset":16120,
			"target":34962
		},
		{
			"buffer":0,
			"byteLength":96,
			"byteOffset":16264,
			"target":34962
		},
		{
			"buffer":0,
			"byteLength":1056,
			"byteOffset":16360,
			"target":34962
		},
		{
			"buffer":0,
			"byteLength":1056,
			"byteOffset":17416,
			"target":34962
		},
		{
			"buffer":0,
			"byteLength":704,
			"byteOffset":18472,
			"target":34962
		},
		{
			"buffer":0,
			"byteLength":144,
			"byteOffset":19176,
			"target":34962
		},
		{
			"buffer":0,
			"byteLength":144,
			"byteOffset":19320,
			"target":34962
		},
		{
			"buffer":0,
			"byteLength":96,
			"byteOffset":19464,
			"target":34962
		},
		{
			"buffer":0,
			"byteLength":1056,
			"byteOffset":19560,
			"target":34962
		},
		{
			"buffer":0,
			"byteLength":1056,
			"byteOffset":20616,
			"target":34962
		},
		{
			"buffer":0,
			"byteLength":704,
			"byteOffset":21672,
			"target":34962
		},
		{
			"buffer":0,
			"byteLength":144,
			"byteOffset":22376,
			"target":34962
		},
		{
			"buffer":0,
			"byteLength":144,
			"byteOffset":22520,
			"target":34962
		},
		{
			"buffer":0,
			"byteLength":96,
			"byteOffset":22664,
			"target":34962
		},
		{
			"buffer":0,
			"byteLength":1056,
			"byteOffset":22760,
			"target":34962
		},
		{
			"buffer":0,
			"byteLength":1056,
			"byteOffset":23816,
			"target":34962
		},
		{
			"buffer":0,
			"byteLength":704,
			"byteOffset":24872,
			"target":34962
		},
		{
			"buffer":0,
			"byteLength":144,
			"byteOffset":25576,
			"target":34962
		},
		{
			"buffer":0,
			"byteLength":144,
			"byteOffset":25720,
			"target":34962
		},
		{
			"buffer":0,
			"byteLength":96,
			"byteOffset":25864,
			"target":34962
		},
		{
			"buffer":0,
			"byteLength":1056,
			"byteOffset":25960,
			"target":34962
		},
		{
			"buffer":0,
			"byteLength":1056,
			"byteOffset":27016,
			"target":34962
		},
		{
			"buffer":0,
			"byteLength":704,
			"byteOffset":28072,
			"target":34962
		},
		{
			"buffer":0,
			"byteLength":144,
			"byteOffset":28776,
			"target":34962
		},
		{
			"buffer":0,
			"byteLength":144,
			"byteOffset":28920,
			"target":34962
		},
		{
			"buffer":0,
			"byteLength":96,
			"byteOffset":29064,
			"target":34962
		},
		{
			"buffer":0,
			"byteLength":1056,
			"byteOffset":29160,
			"target":34962
		},
		{
			"buffer":0,
			"byteLength":1056,
			"byteOffset":30216,
			"target":34962
		},
		{
			"buffer":0,
			"byteLength":704,
			"byteOffset":31272,
			"target":34962
		},
		{
			"buffer":0,
			"byteLength":144,
			"byteOffset":31976,
			"target":34962
		},
		{
			"buffer":0,
			"byteLength":144,
			"byteOffset":32120,
			"target":34962
		},
		{
			"buffer":0,
			"byteLength":96,
			"byteOffset":32264,
			"target":34962
		}
	],
	"buffers":[
		{
			"byteLength":32360,
			"uri":"books4.bin"
		}
	]
}
