{
	"asset":{
		"generator":"Khronos glTF Blender I/O v4.5.47",
		"version":"2.0"
	},
	"scene":0,
	"scenes":[
		{
			"name":"Scene",
			"nodes":[
				0,
				1,
				2,
				3,
				4,
				5,
				6,
				7
			]
		}
	],
	"nodes":[
		{
			"mesh":0,
			"name":"Cube.048",
			"rotation":[
				-0.733482301235199,
				-0.6797086000442505,
				0,
				1.1479839656658442e-07
			],
			"translation":[
				-4.196537971496582,
				0.18988960981369019,
				-4.267785549163818
			]
		},
		{
			"mesh":1,
			"name":"Cube.049",
			"rotation":[
				0,
				0,
				-0.7457489371299744,
				0.6662271618843079
			],
			"translation":[
				-4.181326866149902,
				0.3518274426460266,
				-4.698968410491943
			]
		},
		{
			"mesh":2,
			"name":"Cube.050",
			"rotation":[
				-0.7880744934082031,
				-0.6155797839164734,
				0,
				2.0725946114907856e-07
			],
			"translation":[
				-4.101065158843994,
				0.7224995493888855,
				-4.267785549163818
			]
		},
		{
			"mesh":3,
			"name":"Cube.051",
			"rotation":[
				0,
				0,
				-0.7991632223129272,
				0.6011140942573547
			],
			"translation":[
				-4.115711688995361,
				0.8959879279136658,
				-4.698968410491943
			]
		},
		{
			"mesh":4,
			"name":"Cube.052",
			"rotation":[
				0.010309834964573383,
				0.08487144857645035,
				-0.6100265979766846,
				0.7877552509307861
			],
			"translation":[
				-2.933898448944092,
				0.282146692276001,
				-3.098815679550171
			]
		},
		{
			"mesh":5,
			"name":"Cube.053",
			"rotation":[
				0.19739708304405212,
				0.18292531371116638,
				0.7064210772514343,
				0.6546311974525452
			],
			"translation":[
				-2.8872833251953125,
				0.16273069381713867,
				-3.4217259883880615
			]
		},
		{
			"mesh":6,
			"name":"Cube.054",
			"rotation":[
				0.595207691192627,
				-0.7454325556755066,
				-0.13403916358947754,
				0.26849889755249023
			],
			"translation":[
				-4.138000011444092,
				0.282146692276001,
				-3.0937018394470215
			]
		},
		{
			"mesh":7,
			"name":"Cube.055",
			"rotation":[
				-0.6398259997367859,
				-0.5929183959960938,
				0.35863491892814636,
				0.33234232664108276
			],
			"translation":[
				-4.031219482421875,
				0.16273067891597748,
				-2.7854132652282715
			]
		}
	],
	"materials":[
		{
			"doubleSided":true,
			"name":"Lether",
			"pbrMetallicRoughness":{
				"baseColorFactor":[
					0.800000011920929,
					0.800000011920929,
					0.800000011920929,
					1
				],
				"metallicFactor":0,
				"roughnessFactor":0.8090909123420715
			}
		},
		{
			"doubleSided":true,
			"name":"Cloth",
			"pbrMetallicRoughness":{
				"baseColorFactor":[
					0.800000011920929,
					0.800000011920929,
					0.800000011920929,
					1
				],
				"metallicFactor":0,
				"roughnessFactor":0.8090909123420715
			}
		}
	],
	"meshes":[
		{
			"name":"Cube.051",
			"primitives":[
				{
					"attributes":{
						"POSITION":0,
						"NORMAL":1,
						"TEXCOORD_0":2
					},
					"indices":3,
					"material":0
				},
				{
					"attributes":{
						"POSITION":4,
						"NORMAL":5,
						"TEXCOORD_0":6
					},
					"indices":7,
					"material":1
				}
			]
		},
		{
			"name":"Cube.052",
			"primitives":[
				{
					"attributes":{
						"POSITION":8,
						"NORMAL":9,
						"TEXCOORD_0":10
					},
					"indices":3,
					"material":0
				},
				{
					"attributes":{
						"POSITION":11,
						"NORMAL":12,
						"TEXCOORD_0":13
					},
					"indices":7,
					"material":1
				}
			]
		},
		{
			"name":"Cube.053",
			"primitives":[
				{
					"attributes":{
						"POSITION":14,
						"NORMAL":15,
						"TEXCOORD_0":16
					},
					"indices":3,
					"material":0
				},
				{
					"attributes":{
						"POSITION":17,
						"NORMAL":18,
						"TEXCOORD_0":19
					},
					"indices":7,
					"material":1
				}
			]
		},
		{
			"name":"Cube.054",
			"primitives":[
				{
					"attributes":{
						"POSITION":20,
						"NORMAL":21,
						"TEXCOORD_0":22
					},
					"indices":3,
					"material":0
				},
				{
					"attributes":{
						"POSITION":23,
						"NORMAL":24,
						"TEXCOORD_0":25
					},
					"indices":7,
					"material":1
				}
			]
		},
		{
			"name":"Cube.055",
			"primitives":[
				{
					"attributes":{
						"POSITION":26,
						"NORMAL":27,
						"TEXCOORD_0":28
					},
					"indices":3,
					"material":0
				},
				{
					"attributes":{
						"POSITION":29,
						"NORMAL":30,
						"TEXCOORD_0":31
					},
					"indices":7,
					"material":1
				}
			]
		},
		{
			"name":"Cube.056",
			"primitives":[
				{
					"attributes":{
						"POSITION":32,
						"NORMAL":33,
						"TEXCOORD_0":34
					},
					"indices":3,
					"material":0
				},
				{
					"attributes":{
						"POSITION":35,
						"NORMAL":36,
						"TEXCOORD_0":37
					},
					"indices":7,
					"material":1
				}
			]
		},
		{
			"name":"Cube.057",
			"primitives":[
				{
					"attributes":{
						"POSITION":38,
						"NORMAL":39,
						"TEXCOORD_0":40
					},
					"indices":3,
					"material":0
				},
				{
					"attributes":{
						"POSITION":41,
						"NORMAL":42,
						"TEXCOORD_0":43
					},
					"indices":7,
					"material":1
				}
			]
		},
		{
			"name":"Cube.058",
			"primitives":[
				{
					"attributes":{
						"POSITION":44,
						"NORMAL":45,
						"TEXCOORD_0":46
					},
					"indices":3,
					"material":0
				},
				{
					"attributes":{
						"POSITION":47,
						"NORMAL":48,
						"TEXCOORD_0":49
					},
					"indices":7,
					"material":1
				}
			]
		}
	],
	"accessors":[
		{
			"bufferView":0,
			"componentType":5126,
			"count":88,
			"max":[
				0.0943346917629242,
				0.1448131799697876,
				0.6760053038597107
			],
			"min":[
				-0.22228190302848816,
				-0.5717689990997314,
				-0.203870952129364
			],
			"type":"VEC3"
		},
		{
			"bufferView":1,
			"componentType":5126,
			"count":88,
			"type":"VEC3"
		},
		{
			"bufferView":2,
			"componentType":5126,
			"count":88,
			"type":"VEC2"
		},
		{
			"bufferView":3,
			"componentType":5123,
			"count":162,
			"type":"SCALAR"
		},
		{
			"bufferView":4,
			"componentType":5126,
			"count":12,
			"max":[
				0.04677862673997879,
				0.12175709009170532,
				0.6342733502388
			],
			"min":[
				-0.18775179982185364,
				-0.5466852784156799,
				-0.16015195846557617
			],
			"type":"VEC3"
		},
		{
			"bufferView":5,
			"componentType":5126,
			"count":12,
			"type":"VEC3"
		},
		{
			"bufferView":6,
			"componentType":5126,
			"count":12,
			"type":"VEC2"
		},
		{
			"bufferView":7,
			"componentType":5123,
			"count":18,
			"type":"SCALAR"
		},
		{
			"bufferView":8,
			"componentType":5126,
			"count":88,
			"max":[
				0.0943346917629242,
				0.1448131799697876,
				0.6760053038597107
			],
			"min":[
				-0.22228190302848816,
				-0.5717689990997314,
				-0.203870952129364
			],
			"type":"VEC3"
		},
		{
			"bufferView":9,
			"componentType":5126,
			"count":88,
			"type":"VEC3"
		},
		{
			"bufferView":10,
			"componentType":5126,
			"count":88,
			"type":"VEC2"
		},
		{
			"bufferView":11,
			"componentType":5126,
			"count":12,
			"max":[
				0.04677862673997879,
				0.12175709009170532,
				0.6342733502388
			],
			"min":[
				-0.18775179982185364,
				-0.5466852784156799,
				-0.16015195846557617
			],
			"type":"VEC3"
		},
		{
			"bufferView":12,
			"componentType":5126,
			"count":12,
			"type":"VEC3"
		},
		{
			"bufferView":13,
			"componentType":5126,
			"count":12,
			"type":"VEC2"
		},
		{
			"bufferView":14,
			"componentType":5126,
			"count":88,
			"max":[
				0.0943346917629242,
				0.1448131799697876,
				0.6760053038597107
			],
			"min":[
				-0.22228190302848816,
				-0.5717689990997314,
				-0.203870952129364
			],
			"type":"VEC3"
		},
		{
			"bufferView":15,
			"componentType":5126,
			"count":88,
			"type":"VEC3"
		},
		{
			"bufferView":16,
			"componentType":5126,
			"count":88,
			"type":"VEC2"
		},
		{
			"bufferView":17,
			"componentType":5126,
			"count":12,
			"max":[
				0.04677862673997879,
				0.12175709009170532,
				0.6342733502388
			],
			"min":[
				-0.18775179982185364,
				-0.5466852784156799,
				-0.16015195846557617
			],
			"type":"VEC3"
		},
		{
			"bufferView":18,
			"componentType":5126,
			"count":12,
			"type":"VEC3"
		},
		{
			"bufferView":19,
			"componentType":5126,
			"count":12,
			"type":"VEC2"
		},
		{
			"bufferView":20,
			"componentType":5126,
			"count":88,
			"max":[
				0.0943346917629242,
				0.1448131799697876,
				0.6760053038597107
			],
			"min":[
				-0.22228190302848816,
				-0.5717689990997314,
				-0.203870952129364
			],
			"type":"VEC3"
		},
		{
			"bufferView":21,
			"componentType":5126,
			"count":88,
			"type":"VEC3"
		},
		{
			"bufferView":22,
			"componentType":5126,
			"count":88,
			"type":"VEC2"
		},
		{
			"bufferView":23,
			"componentType":5126,
			"count":12,
			"max":[
				0.04677862673997879,
				0.12175709009170532,
				0.6342733502388
			],
			"min":[
				-0.18775179982185364,
				-0.5466852784156799,
				-0.16015195846557617
			],
			"type":"VEC3"
		},
		{
			"bufferView":24,
			"componentType":5126,
			"count":12,
			"type":"VEC3"
		},
		{
			"bufferView":25,
			"componentType":5126,
			"count":12,
			"type":"VEC2"
		},
		{
			"bufferView":26,
			"componentType":5126,
			"count":88,
			"max":[
				0.0943346917629242,
				0.1448131799697876,
				0.6760053038597107
			],
			"min":[
				-0.22228190302848816,
				-0.5717689990997314,
				-0.203870952129364
			],
			"type":"VEC3"
		},
		{
			"bufferView":27,
			"componentType":5126,
			"count":88,
			"type":"VEC3"
		},
		{
			"bufferView":28,
			"componentType":5126,
			"count":88,
			"type":"VEC2"
		},
		{
			"bufferView":29,
			"componentType":5126,
			"count":12,
			"max":[
				0.04677862673997879,
				0.12175709009170532,
				0.6342733502388
			],
			"min":[
				-0.18775179982185364,
				-0.5466852784156799,
				-0.16015195846557617
			],
			"type":"VEC3"
		},
		{
			"bufferView":30,
			"componentType":5126,
			"count":12,
			"type":"VEC3"
		},
		{
			"bufferView":31,
			"componentType":5126,
			"count":12,
			"type":"VEC2"
		},
		{
			"bufferView":32,
			"componentType":5126,
			"count":88,
			"max":[
				0.0943346917629242,
				0.1448131799697876,
				0.6760053038597107
			],
			"min":[
				-0.22228190302848816,
				-0.5717689990997314,
				-0.203870952129364
			],
			"type":"VEC3"
		},
		{
			"bufferView":33,
			"componentType":5126,
			"count":88,
			"type":"VEC3"
		},
		{
			"bufferView":34,
			"componentType":5126,
			"count":88,
			"type":"VEC2"
		},
		{
			"bufferView":35,
			"componentType":5126,
			"count":12,
			"max":[
				0.04677862673997879,
				0.12175709009170532,
				0.6342733502388
			],
			"min":[
				-0.18775179982185364,
				-0.5466852784156799,
				-0.16015195846557617
			],
			"type":"VEC3"
		},
		{
			"bufferView":36,
			"componentType":5126,
			"count":12,
			"type":"VEC3"
		},
		{
			"bufferView":37,
			"componentType":5126,
			"count":12,
			"type":"VEC2"
		},
		{
			"bufferView":38,
			"componentType":5126,
			"count":88,
			"max":[
				0.0943346917629242,
				0.1448131799697876,
				0.6760053038597107
			],
			"min":[
				-0.22228190302848816,
				-0.5717689990997314,
				-0.203870952129364
			],
			"type":"VEC3"
		},
		{
			"bufferView":39,
			"componentType":5126,
			"count":88,
			"type":"VEC3"
		},
		{
			"bufferView":40,
			"componentType":5126,
			"count":88,
			"type":"VEC2"
		},
		{
			"bufferView":41,
			"componentType":5126,
			"count":12,
			"max":[
				0.04677862673997879,
				0.12175709009170532,
				0.6342733502388
			],
			"min":[
				-0.18775179982185364,
				-0.5466852784156799,
				-0.16015195846557617
			],
			"type":"VEC3"
		},
		{
			"bufferView":42,
			"componentType":5126,
			"count":12,
			"type":"VEC3"
		},
		{
			"bufferView":43,
			"componentType":5126,
			"count":12,
			"type":"VEC2"
		},
		{
			"bufferView":44,
			"componentType":5126,
			"count":88,
			"max":[
				0.0943346917629242,
				0.1448131799697876,
				0.6760053038597107
			],
			"min":[
				-0.22228190302848816,
				-0.5717689990997314,
				-0.203870952129364
			],
			"type":"VEC3"
		},
		{
			"bufferView":45,
			"componentType":5126,
			"count":88,
			"type":"VEC3"
		},
		{
			"bufferView":46,
			"componentType":5126,
			"count":88,
			"type":"VEC2"
		},
		{
			"bufferView":47,
			"componentType":5126,
			"count":12,
			"max":[
				0.04677862673997879,
				0.12175709009170532,
				0.6342733502388
			],
			"min":[
				-0.18775179982185364,
				-0.5466852784156799,
				-0.16015195846557617
			],
			"type":"VEC3"
		},
		{
			"bufferView":48,
			"componentType":5126,
			"count":12,
			"type":"VEC3"
		},
		{
			"bufferView":49,
			"componentType":5126,
			"count":12,
			"type":"VEC2"
		}
	],
	"bufferViews":[
		{
			"buffer":0,
			"byteLength":1056,
			"byteOffset":0,
			"target":34962
		},
		{
			"buffer":0,
			"byteLength":1056,
			"byteOffset":1056,
			"target":34962
		},
		{
			"buffer":0,
			"byteLength":704,
			"byteOffset":2112,
			"target":34962
		},
		{
			"buffer":0,
			"byteLength":324,
			"byteOffset":2816,
			"target":34963
		},
		{
			"buffer":0,
			"byteLength":144,
			"byteOffset":3140,
			"target":34962
		},
		{
			"buffer":0,
			"byteLength":144,
			"byteOffset":3284,
			"target":34962
		},
		{
			"buffer":0,
			"byteLength":96,
			"byteOffset":3428,
			"target":34962
		},
		{
			"buffer":0,
			"byteLength":36,
			"byteOffset":3524,
			"target":34963
		},
		{
			"buffer":0,
			"byteLength":1056,
			"byteOffset":3560,
			"target":34962
		},
		{
			"buffer":0,
			"byteLength":1056,
			"byteOffset":4616,
			"target":34962
		},
		{
			"buffer":0,
			"byteLength":704,
			"byteOffset":5672,
			"target":34962
		},
		{
			"buffer":0,
			"byteLength":144,
			"byteOffset":6376,
			"target":34962
		},
		{
			"buffer":0,
			"byteLength":144,
			"byteOffset":6520,
			"target":34962
		},
		{
			"buffer":0,
			"byteLength":96,
			"byteOffset":6664,
			"target":34962
		},
		{
			"buffer":0,
			"byteLength":1056,
			"byteOffset":6760,
			"target":34962
		},
		{
			"buffer":0,
			"byteLength":1056,
			"byteOffset":7816,
			"target":34962
		},
		{
			"buffer":0,
			"byteLength":704,
			"byteOffset":8872,
			"target":34962
		},
		{
			"buffer":0,
			"byteLength":144,
			"byteOffset":9576,
			"target":34962
		},
		{
			"buffer":0,
			"byteLength":144,
			"byteOffset":9720,
			"target":34962
		},
		{
			"buffer":0,
			"byteLength":96,
			"byteOffset":9864,
			"target":34962
		},
		{
			"buffer":0,
			"byteLength":1056,
			"byteOffset":9960,
			"target":34962
		},
		{
			"buffer":0,
			"byteLength":1056,
			"byteOffset":11016,
			"target":34962
		},
		{
			"buffer":0,
			"byteLength":704,
			"byteOffset":12072,
			"target":34962
		},
		{
			"buffer":0,
			"byteLength":144,
			"byteOffset":12776,
			"target":34962
		},
		{
			"buffer":0,
			"byteLength":144,
			"byteOffset":12920,
			"target":34962
		},
		{
			"buffer":0,
			"byteLength":96,
			"byteOffset":13064,
			"target":34962
		},
		{
			"buffer":0,
			"byteLength":1056,
			"byteOffset":13160,
			"target":34962
		},
		{
			"buffer":0,
			"byteLength":1056,
			"byteOffset":14216,
			"target":34962
		},
		{
			"buffer":0,
			"byteLength":704,
			"byteOffset":15272,
			"target":34962
		},
		{
			"buffer":0,
			"byteLength":144,
			"byteOffset":15976,
			"target":34962
		},
		{
			"buffer":0,
			"byteLength":144,
			"byteOffset":16120,
			"target":34962
		},
		{
			"buffer":0,
			"byteLength":96,
			"byteOffset":16264,
			"target":34962
		},
		{
			"buffer":0,
			"byteLength":1056,
			"byteOffset":16360,
			"target":34962
		},
		{
			"buffer":0,
			"byteLength":1056,
			"byteOffset":17416,
			"target":34962
		},
		{
			"buffer":0,
			"byteLength":704,
			"byteOffset":18472,
			"target":34962
		},
		{
			"buffer":0,
			"byteLength":144,
			"byteOffset":19176,
			"target":34962
		},
		{
			"buffer":0,
			"byteLength":144,
			"byteOffset":19320,
			"target":34962
		},
		{
			"buffer":0,
			"byteLength":96,
			"byteOffset":19464,
			"target":34962
		},
		{
			"buffer":0,
			"byteLength":1056,
			"byteOffset":19560,
			"target":34962
		},
		{
			"buffer":0,
			"byteLength":1056,
			"byteOffset":20616,
			"target":34962
		},
		{
			"buffer":0,
			"byteLength":704,
			"byteOffset":21672,
			"target":34962
		},
		{
			"buffer":0,
			"byteLength":144,
			"byteOffset":22376,
			"target":34962
		},
		{
			"buffer":0,
			"byteLength":144,
			"byteOffset":22520,
			"target":34962
		},
		{
			"buffer":0,
			"byteLength":96,
			"byteOffset":22664,
			"target":34962
		},
		{
			"buffer":0,
			"byteLength":1056,
			"byteOffset":22760,
			"target":34962
		},
		{
			"buffer":0,
			"byteLength":1056,
			"byteOffset":23816,
			"target":34962
		},
		{
			"buffer":0,
			"byteLength":704,
			"byteOffset":24872,
			"target":34962
		},
		{
			"buffer":0,
			"byteLength":144,
			"byteOffset":25576,
			"target":34962
		},
		{
			"buffer":0,
			"byteLength":144,
			"byteOffset":25720,
			"target":34962
		},
		{
			"buffer":0,
			"byteLength":96,
			"byteOffset":25864,
			"target":34962
		}
	],
	"buffers":[
		{
			"byteLength":25960,
			"uri":"Books1.bin"
		}
	]
}
