{
	"asset":{
		"generator":"Khronos glTF Blender I/O v4.5.47",
		"version":"2.0"
	},
	"scene":0,
	"scenes":[
		{
			"name":"Scene",
			"nodes":[
				0
			]
		}
	],
	"nodes":[
		{
			"mesh":0,
			"name":"Cube.009",
			"translation":[
				-5,
				0,
				0
			]
		}
	],
	"materials":[
		{
			"doubleSided":true,
			"name":"Wood",
			"pbrMetallicRoughness":{
				"baseColorFactor":[
					0.800000011920929,
					0.800000011920929,
					0.800000011920929,
					1
				],
				"metallicFactor":0,
				"roughnessFactor":0.8090909123420715
			}
		},
		{
			"doubleSided":true,
			"name":"Cloth",
			"pbrMetallicRoughness":{
				"baseColorFactor":[
					0.800000011920929,
					0.800000011920929,
					0.800000011920929,
					1
				],
				"metallicFactor":0,
				"roughnessFactor":0.8090909123420715
			}
		}
	],
	"meshes":[
		{
			"name":"Cube.001",
			"primitives":[
				{
					"attributes":{
						"POSITION":0,
						"NORMAL":1,
						"TEXCOORD_0":2
					},
					"indices":3,
					"material":0
				},
				{
					"attributes":{
						"POSITION":4,
						"NORMAL":5,
						"TEXCOORD_0":6
					},
					"indices":7,
					"material":1
				}
			]
		}
	],
	"accessors":[
		{
			"bufferView":0,
			"componentType":5126,
			"count":224,
			"max":[
				0.25921830534935,
				3.3723607063293457,
				1.6048136949539185
			],
			"min":[
				-0.2824963927268982,
				-0.029947886243462563,
				-1.670783281326294
			],
			"type":"VEC3"
		},
		{
			"bufferView":1,
			"componentType":5126,
			"count":224,
			"type":"VEC3"
		},
		{
			"bufferView":2,
			"componentType":5126,
			"count":224,
			"type":"VEC2"
		},
		{
			"bufferView":3,
			"componentType":5123,
			"count":348,
			"type":"SCALAR"
		},
		{
			"bufferView":4,
			"componentType":5126,
			"count":368,
			"max":[
				0.4083126485347748,
				2.9152352809906006,
				1.1086350679397583
			],
			"min":[
				-0.399239718914032,
				-0.029062574729323387,
				-1.1082062721252441
			],
			"type":"VEC3"
		},
		{
			"bufferView":5,
			"componentType":5126,
			"count":368,
			"type":"VEC3"
		},
		{
			"bufferView":6,
			"componentType":5126,
			"count":368,
			"type":"VEC2"
		},
		{
			"bufferView":7,
			"componentType":5123,
			"count":552,
			"type":"SCALAR"
		}
	],
	"bufferViews":[
		{
			"buffer":0,
			"byteLength":2688,
			"byteOffset":0,
			"target":34962
		},
		{
			"buffer":0,
			"byteLength":2688,
			"byteOffset":2688,
			"target":34962
		},
		{
			"buffer":0,
			"byteLength":1792,
			"byteOffset":5376,
			"target":34962
		},
		{
			"buffer":0,
			"byteLength":696,
			"byteOffset":7168,
			"target":34963
		},
		{
			"buffer":0,
			"byteLength":4416,
			"byteOffset":7864,
			"target":34962
		},
		{
			"buffer":0,
			"byteLength":4416,
			"byteOffset":12280,
			"target":34962
		},
		{
			"buffer":0,
			"byteLength":2944,
			"byteOffset":16696,
			"target":34962
		},
		{
			"buffer":0,
			"byteLength":1104,
			"byteOffset":19640,
			"target":34963
		}
	],
	"buffers":[
		{
			"byteLength":20744,
			"uri":"Okrim.bin"
		}
	]
}
