{
	"asset":{
		"generator":"Khronos glTF Blender I/O v4.5.47",
		"version":"2.0"
	},
	"scene":0,
	"scenes":[
		{
			"name":"Scene",
			"nodes":[
				0,
				1,
				2,
				3,
				4,
				5,
				6
			]
		}
	],
	"nodes":[
		{
			"mesh":0,
			"name":"Cylinder.002",
			"rotation":[
				0.4940491020679474,
				-0.6550053954124451,
				-0.3485187590122223,
				0.45323073863983154
			],
			"translation":[
				4.36687707901001,
				0.07679516822099686,
				1.8365155458450317
			]
		},
		{
			"mesh":1,
			"name":"Cylinder.003",
			"rotation":[
				0.8496331572532654,
				0.00967411883175373,
				-0.5271219611167908,
				0.013132707215845585
			],
			"translation":[
				4.177169322967529,
				0.12257958948612213,
				2.0131287574768066
			]
		},
		{
			"mesh":2,
			"name":"Cylinder.004",
			"rotation":[
				0.8704875707626343,
				0.07641632109880447,
				0.09379816800355911,
				0.477088987827301
			],
			"translation":[
				4.330039024353027,
				0.16931679844856262,
				1.5801490545272827
			]
		},
		{
			"mesh":3,
			"name":"Cylinder.005",
			"rotation":[
				-0.24044139683246613,
				-0.6355817914009094,
				0.09225987643003464,
				0.7278130650520325
			],
			"translation":[
				4.169277667999268,
				0.11910304427146912,
				1.8109369277954102
			]
		},
		{
			"mesh":4,
			"name":"Cylinder.006",
			"rotation":[
				0.08043032139539719,
				-0.6901187896728516,
				-0.651898205280304,
				0.3038022220134735
			],
			"translation":[
				4.136931896209717,
				0.07631391286849976,
				1.5301637649536133
			]
		},
		{
			"mesh":5,
			"name":"Cylinder.007",
			"rotation":[
				0.8181002140045166,
				-0.10502155870199203,
				-0.5619128942489624,
				0.06274279206991196
			],
			"translation":[
				4.170754909515381,
				0.3059076964855194,
				1.6362574100494385
			]
		},
		{
			"mesh":6,
			"name":"Cylinder.008",
			"rotation":[
				0.9663321375846863,
				-0.14811719954013824,
				0.17086906731128693,
				0.12274887412786484
			],
			"translation":[
				4.004571437835693,
				0.10705879330635071,
				1.6816344261169434
			]
		}
	],
	"materials":[
		{
			"doubleSided":true,
			"name":"Plastic",
			"pbrMetallicRoughness":{
				"baseColorFactor":[
					0.800000011920929,
					0.800000011920929,
					0.800000011920929,
					1
				],
				"metallicFactor":0,
				"roughnessFactor":0.8090909123420715
			}
		},
		{
			"doubleSided":true,
			"name":"Matrice",
			"pbrMetallicRoughness":{
				"baseColorFactor":[
					0.800000011920929,
					0.800000011920929,
					0.800000011920929,
					1
				],
				"metallicFactor":0,
				"roughnessFactor":0.8090909123420715
			}
		},
		{
			"doubleSided":true,
			"name":"FloorWood",
			"pbrMetallicRoughness":{
				"baseColorFactor":[
					0.800000011920929,
					0.800000011920929,
					0.800000011920929,
					1
				],
				"metallicFactor":0,
				"roughnessFactor":0.8090909123420715
			}
		}
	],
	"meshes":[
		{
			"name":"Cylinder.002",
			"primitives":[
				{
					"attributes":{
						"POSITION":0,
						"NORMAL":1,
						"TEXCOORD_0":2
					},
					"indices":3,
					"material":0
				},
				{
					"attributes":{
						"POSITION":4,
						"NORMAL":5,
						"TEXCOORD_0":6
					},
					"indices":7,
					"material":1
				},
				{
					"attributes":{
						"POSITION":8,
						"NORMAL":9,
						"TEXCOORD_0":10
					},
					"indices":11,
					"material":2
				}
			]
		},
		{
			"name":"Cylinder.003",
			"primitives":[
				{
					"attributes":{
						"POSITION":12,
						"NORMAL":13,
						"TEXCOORD_0":14
					},
					"indices":15,
					"material":1
				}
			]
		},
		{
			"name":"Cylinder.004",
			"primitives":[
				{
					"attributes":{
						"POSITION":16,
						"NORMAL":17,
						"TEXCOORD_0":18
					},
					"indices":15,
					"material":1
				}
			]
		},
		{
			"name":"Cylinder.005",
			"primitives":[
				{
					"attributes":{
						"POSITION":19,
						"NORMAL":20,
						"TEXCOORD_0":21
					},
					"indices":3,
					"material":0
				},
				{
					"attributes":{
						"POSITION":22,
						"NORMAL":23,
						"TEXCOORD_0":24
					},
					"indices":7,
					"material":1
				},
				{
					"attributes":{
						"POSITION":25,
						"NORMAL":26,
						"TEXCOORD_0":27
					},
					"indices":11,
					"material":2
				}
			]
		},
		{
			"name":"Cylinder.006",
			"primitives":[
				{
					"attributes":{
						"POSITION":28,
						"NORMAL":29,
						"TEXCOORD_0":30
					},
					"indices":3,
					"material":0
				},
				{
					"attributes":{
						"POSITION":31,
						"NORMAL":32,
						"TEXCOORD_0":33
					},
					"indices":7,
					"material":1
				},
				{
					"attributes":{
						"POSITION":34,
						"NORMAL":35,
						"TEXCOORD_0":36
					},
					"indices":11,
					"material":2
				}
			]
		},
		{
			"name":"Cylinder.007",
			"primitives":[
				{
					"attributes":{
						"POSITION":37,
						"NORMAL":38,
						"TEXCOORD_0":39
					},
					"indices":15,
					"material":1
				}
			]
		},
		{
			"name":"Cylinder.008",
			"primitives":[
				{
					"attributes":{
						"POSITION":40,
						"NORMAL":41,
						"TEXCOORD_0":42
					},
					"indices":3,
					"material":0
				},
				{
					"attributes":{
						"POSITION":43,
						"NORMAL":44,
						"TEXCOORD_0":45
					},
					"indices":7,
					"material":1
				},
				{
					"attributes":{
						"POSITION":46,
						"NORMAL":47,
						"TEXCOORD_0":48
					},
					"indices":11,
					"material":2
				}
			]
		}
	],
	"accessors":[
		{
			"bufferView":0,
			"componentType":5126,
			"count":66,
			"max":[
				0.08660253882408142,
				0.10000000149011612,
				0.10000000149011612
			],
			"min":[
				-0.08660253882408142,
				-0.10000000149011612,
				-0.10000000149011612
			],
			"type":"VEC3"
		},
		{
			"bufferView":1,
			"componentType":5126,
			"count":66,
			"type":"VEC3"
		},
		{
			"bufferView":2,
			"componentType":5126,
			"count":66,
			"type":"VEC2"
		},
		{
			"bufferView":3,
			"componentType":5123,
			"count":138,
			"type":"SCALAR"
		},
		{
			"bufferView":4,
			"componentType":5126,
			"count":24,
			"max":[
				0,
				0.06666666269302368,
				0.0972873717546463
			],
			"min":[
				-0.08425332605838776,
				-0.06666666269302368,
				-0.0972873717546463
			],
			"type":"VEC3"
		},
		{
			"bufferView":5,
			"componentType":5126,
			"count":24,
			"type":"VEC3"
		},
		{
			"bufferView":6,
			"componentType":5126,
			"count":24,
			"type":"VEC2"
		},
		{
			"bufferView":7,
			"componentType":5123,
			"count":36,
			"type":"SCALAR"
		},
		{
			"bufferView":8,
			"componentType":5126,
			"count":12,
			"max":[
				0,
				0.044965244829654694,
				0.09552133083343506
			],
			"min":[
				-0.08272389322519302,
				0.01649518311023712,
				-0.09552133083343506
			],
			"type":"VEC3"
		},
		{
			"bufferView":9,
			"componentType":5126,
			"count":12,
			"type":"VEC3"
		},
		{
			"bufferView":10,
			"componentType":5126,
			"count":12,
			"type":"VEC2"
		},
		{
			"bufferView":11,
			"componentType":5123,
			"count":18,
			"type":"SCALAR"
		},
		{
			"bufferView":12,
			"componentType":5126,
			"count":50,
			"max":[
				0.10035702586174011,
				0.11818931996822357,
				0.11588231474161148
			],
			"min":[
				-0.10035702586174011,
				0.10000000149011612,
				-0.11588231474161148
			],
			"type":"VEC3"
		},
		{
			"bufferView":13,
			"componentType":5126,
			"count":50,
			"type":"VEC3"
		},
		{
			"bufferView":14,
			"componentType":5126,
			"count":50,
			"type":"VEC2"
		},
		{
			"bufferView":15,
			"componentType":5123,
			"count":120,
			"type":"SCALAR"
		},
		{
			"bufferView":16,
			"componentType":5126,
			"count":50,
			"max":[
				0.10035702586174011,
				0.11818931996822357,
				0.11588231474161148
			],
			"min":[
				-0.10035702586174011,
				0.10000000149011612,
				-0.11588231474161148
			],
			"type":"VEC3"
		},
		{
			"bufferView":17,
			"componentType":5126,
			"count":50,
			"type":"VEC3"
		},
		{
			"bufferView":18,
			"componentType":5126,
			"count":50,
			"type":"VEC2"
		},
		{
			"bufferView":19,
			"componentType":5126,
			"count":66,
			"max":[
				0.08660253882408142,
				0.10000000149011612,
				0.10000000149011612
			],
			"min":[
				-0.08660253882408142,
				-0.10000000149011612,
				-0.10000000149011612
			],
			"type":"VEC3"
		},
		{
			"bufferView":20,
			"componentType":5126,
			"count":66,
			"type":"VEC3"
		},
		{
			"bufferView":21,
			"componentType":5126,
			"count":66,
			"type":"VEC2"
		},
		{
			"bufferView":22,
			"componentType":5126,
			"count":24,
			"max":[
				0,
				0.06666666269302368,
				0.0972873717546463
			],
			"min":[
				-0.08425332605838776,
				-0.06666666269302368,
				-0.0972873717546463
			],
			"type":"VEC3"
		},
		{
			"bufferView":23,
			"componentType":5126,
			"count":24,
			"type":"VEC3"
		},
		{
			"bufferView":24,
			"componentType":5126,
			"count":24,
			"type":"VEC2"
		},
		{
			"bufferView":25,
			"componentType":5126,
			"count":12,
			"max":[
				0,
				0.044965244829654694,
				0.09552133083343506
			],
			"min":[
				-0.08272389322519302,
				0.01649518311023712,
				-0.09552133083343506
			],
			"type":"VEC3"
		},
		{
			"bufferView":26,
			"componentType":5126,
			"count":12,
			"type":"VEC3"
		},
		{
			"bufferView":27,
			"componentType":5126,
			"count":12,
			"type":"VEC2"
		},
		{
			"bufferView":28,
			"componentType":5126,
			"count":66,
			"max":[
				0.08660253882408142,
				0.10000000149011612,
				0.10000000149011612
			],
			"min":[
				-0.08660253882408142,
				-0.10000000149011612,
				-0.10000000149011612
			],
			"type":"VEC3"
		},
		{
			"bufferView":29,
			"componentType":5126,
			"count":66,
			"type":"VEC3"
		},
		{
			"bufferView":30,
			"componentType":5126,
			"count":66,
			"type":"VEC2"
		},
		{
			"bufferView":31,
			"componentType":5126,
			"count":24,
			"max":[
				0,
				0.06666666269302368,
				0.0972873717546463
			],
			"min":[
				-0.08425332605838776,
				-0.06666666269302368,
				-0.0972873717546463
			],
			"type":"VEC3"
		},
		{
			"bufferView":32,
			"componentType":5126,
			"count":24,
			"type":"VEC3"
		},
		{
			"bufferView":33,
			"componentType":5126,
			"count":24,
			"type":"VEC2"
		},
		{
			"bufferView":34,
			"componentType":5126,
			"count":12,
			"max":[
				0,
				0.044965244829654694,
				0.09552133083343506
			],
			"min":[
				-0.08272389322519302,
				0.01649518311023712,
				-0.09552133083343506
			],
			"type":"VEC3"
		},
		{
			"bufferView":35,
			"componentType":5126,
			"count":12,
			"type":"VEC3"
		},
		{
			"bufferView":36,
			"componentType":5126,
			"count":12,
			"type":"VEC2"
		},
		{
			"bufferView":37,
			"componentType":5126,
			"count":50,
			"max":[
				0.10035702586174011,
				0.11818931996822357,
				0.11588231474161148
			],
			"min":[
				-0.10035702586174011,
				0.10000000149011612,
				-0.11588231474161148
			],
			"type":"VEC3"
		},
		{
			"bufferView":38,
			"componentType":5126,
			"count":50,
			"type":"VEC3"
		},
		{
			"bufferView":39,
			"componentType":5126,
			"count":50,
			"type":"VEC2"
		},
		{
			"bufferView":40,
			"componentType":5126,
			"count":66,
			"max":[
				0.08660253882408142,
				0.10000000149011612,
				0.10000000149011612
			],
			"min":[
				-0.08660253882408142,
				-0.10000000149011612,
				-0.10000000149011612
			],
			"type":"VEC3"
		},
		{
			"bufferView":41,
			"componentType":5126,
			"count":66,
			"type":"VEC3"
		},
		{
			"bufferView":42,
			"componentType":5126,
			"count":66,
			"type":"VEC2"
		},
		{
			"bufferView":43,
			"componentType":5126,
			"count":24,
			"max":[
				0,
				0.06666666269302368,
				0.0972873717546463
			],
			"min":[
				-0.08425332605838776,
				-0.06666666269302368,
				-0.0972873717546463
			],
			"type":"VEC3"
		},
		{
			"bufferView":44,
			"componentType":5126,
			"count":24,
			"type":"VEC3"
		},
		{
			"bufferView":45,
			"componentType":5126,
			"count":24,
			"type":"VEC2"
		},
		{
			"bufferView":46,
			"componentType":5126,
			"count":12,
			"max":[
				0,
				0.044965244829654694,
				0.09552133083343506
			],
			"min":[
				-0.08272389322519302,
				0.01649518311023712,
				-0.09552133083343506
			],
			"type":"VEC3"
		},
		{
			"bufferView":47,
			"componentType":5126,
			"count":12,
			"type":"VEC3"
		},
		{
			"bufferView":48,
			"componentType":5126,
			"count":12,
			"type":"VEC2"
		}
	],
	"bufferViews":[
		{
			"buffer":0,
			"byteLength":792,
			"byteOffset":0,
			"target":34962
		},
		{
			"buffer":0,
			"byteLength":792,
			"byteOffset":792,
			"target":34962
		},
		{
			"buffer":0,
			"byteLength":528,
			"byteOffset":1584,
			"target":34962
		},
		{
			"buffer":0,
			"byteLength":276,
			"byteOffset":2112,
			"target":34963
		},
		{
			"buffer":0,
			"byteLength":288,
			"byteOffset":2388,
			"target":34962
		},
		{
			"buffer":0,
			"byteLength":288,
			"byteOffset":2676,
			"target":34962
		},
		{
			"buffer":0,
			"byteLength":192,
			"byteOffset":2964,
			"target":34962
		},
		{
			"buffer":0,
			"byteLength":72,
			"byteOffset":3156,
			"target":34963
		},
		{
			"buffer":0,
			"byteLength":144,
			"byteOffset":3228,
			"target":34962
		},
		{
			"buffer":0,
			"byteLength":144,
			"byteOffset":3372,
			"target":34962
		},
		{
			"buffer":0,
			"byteLength":96,
			"byteOffset":3516,
			"target":34962
		},
		{
			"buffer":0,
			"byteLength":36,
			"byteOffset":3612,
			"target":34963
		},
		{
			"buffer":0,
			"byteLength":600,
			"byteOffset":3648,
			"target":34962
		},
		{
			"buffer":0,
			"byteLength":600,
			"byteOffset":4248,
			"target":34962
		},
		{
			"buffer":0,
			"byteLength":400,
			"byteOffset":4848,
			"target":34962
		},
		{
			"buffer":0,
			"byteLength":240,
			"byteOffset":5248,
			"target":34963
		},
		{
			"buffer":0,
			"byteLength":600,
			"byteOffset":5488,
			"target":34962
		},
		{
			"buffer":0,
			"byteLength":600,
			"byteOffset":6088,
			"target":34962
		},
		{
			"buffer":0,
			"byteLength":400,
			"byteOffset":6688,
			"target":34962
		},
		{
			"buffer":0,
			"byteLength":792,
			"byteOffset":7088,
			"target":34962
		},
		{
			"buffer":0,
			"byteLength":792,
			"byteOffset":7880,
			"target":34962
		},
		{
			"buffer":0,
			"byteLength":528,
			"byteOffset":8672,
			"target":34962
		},
		{
			"buffer":0,
			"byteLength":288,
			"byteOffset":9200,
			"target":34962
		},
		{
			"buffer":0,
			"byteLength":288,
			"byteOffset":9488,
			"target":34962
		},
		{
			"buffer":0,
			"byteLength":192,
			"byteOffset":9776,
			"target":34962
		},
		{
			"buffer":0,
			"byteLength":144,
			"byteOffset":9968,
			"target":34962
		},
		{
			"buffer":0,
			"byteLength":144,
			"byteOffset":10112,
			"target":34962
		},
		{
			"buffer":0,
			"byteLength":96,
			"byteOffset":10256,
			"target":34962
		},
		{
			"buffer":0,
			"byteLength":792,
			"byteOffset":10352,
			"target":34962
		},
		{
			"buffer":0,
			"byteLength":792,
			"byteOffset":11144,
			"target":34962
		},
		{
			"buffer":0,
			"byteLength":528,
			"byteOffset":11936,
			"target":34962
		},
		{
			"buffer":0,
			"byteLength":288,
			"byteOffset":12464,
			"target":34962
		},
		{
			"buffer":0,
			"byteLength":288,
			"byteOffset":12752,
			"target":34962
		},
		{
			"buffer":0,
			"byteLength":192,
			"byteOffset":13040,
			"target":34962
		},
		{
			"buffer":0,
			"byteLength":144,
			"byteOffset":13232,
			"target":34962
		},
		{
			"buffer":0,
			"byteLength":144,
			"byteOffset":13376,
			"target":34962
		},
		{
			"buffer":0,
			"byteLength":96,
			"byteOffset":13520,
			"target":34962
		},
		{
			"buffer":0,
			"byteLength":600,
			"byteOffset":13616,
			"target":34962
		},
		{
			"buffer":0,
			"byteLength":600,
			"byteOffset":14216,
			"target":34962
		},
		{
			"buffer":0,
			"byteLength":400,
			"byteOffset":14816,
			"target":34962
		},
		{
			"buffer":0,
			"byteLength":792,
			"byteOffset":15216,
			"target":34962
		},
		{
			"buffer":0,
			"byteLength":792,
			"byteOffset":16008,
			"target":34962
		},
		{
			"buffer":0,
			"byteLength":528,
			"byteOffset":16800,
			"target":34962
		},
		{
			"buffer":0,
			"byteLength":288,
			"byteOffset":17328,
			"target":34962
		},
		{
			"buffer":0,
			"byteLength":288,
			"byteOffset":17616,
			"target":34962
		},
		{
			"buffer":0,
			"byteLength":192,
			"byteOffset":17904,
			"target":34962
		},
		{
			"buffer":0,
			"byteLength":144,
			"byteOffset":18096,
			"target":34962
		},
		{
			"buffer":0,
			"byteLength":144,
			"byteOffset":18240,
			"target":34962
		},
		{
			"buffer":0,
			"byteLength":96,
			"byteOffset":18384,
			"target":34962
		}
	],
	"buffers":[
		{
			"byteLength":18480,
			"uri":"Empty_pile.bin"
		}
	]
}
