{
	"asset":{
		"generator":"Khronos glTF Blender I/O v4.5.47",
		"version":"2.0"
	},
	"scene":0,
	"scenes":[
		{
			"name":"Scene",
			"nodes":[
				0,
				1
			]
		}
	],
	"nodes":[
		{
			"mesh":0,
			"name":"Cube.003",
			"translation":[
				4.25,
				0.5,
				2.6499998569488525
			]
		},
		{
			"mesh":1,
			"name":"Cylinder.001",
			"translation":[
				4.025362968444824,
				1.0000172853469849,
				2.502596855163574
			]
		}
	],
	"materials":[
		{
			"doubleSided":true,
			"name":"Wood",
			"pbrMetallicRoughness":{
				"baseColorFactor":[
					0.800000011920929,
					0.800000011920929,
					0.800000011920929,
					1
				],
				"metallicFactor":0,
				"roughnessFactor":0.8090909123420715
			}
		},
		{
			"doubleSided":true,
			"name":"Plastic",
			"pbrMetallicRoughness":{
				"baseColorFactor":[
					0.800000011920929,
					0.800000011920929,
					0.800000011920929,
					1
				],
				"metallicFactor":0,
				"roughnessFactor":0.8090909123420715
			}
		},
		{
			"doubleSided":true,
			"name":"Matrice",
			"pbrMetallicRoughness":{
				"baseColorFactor":[
					0.800000011920929,
					0.800000011920929,
					0.800000011920929,
					1
				],
				"metallicFactor":0,
				"roughnessFactor":0.8090909123420715
			}
		},
		{
			"doubleSided":true,
			"name":"FloorWood",
			"pbrMetallicRoughness":{
				"baseColorFactor":[
					0.800000011920929,
					0.800000011920929,
					0.800000011920929,
					1
				],
				"metallicFactor":0,
				"roughnessFactor":0.8090909123420715
			}
		}
	],
	"meshes":[
		{
			"name":"Cube.006",
			"primitives":[
				{
					"attributes":{
						"POSITION":0,
						"NORMAL":1,
						"TEXCOORD_0":2
					},
					"indices":3,
					"material":0
				}
			]
		},
		{
			"name":"Cylinder.001",
			"primitives":[
				{
					"attributes":{
						"POSITION":4,
						"NORMAL":5,
						"TEXCOORD_0":6
					},
					"indices":7,
					"material":1
				},
				{
					"attributes":{
						"POSITION":8,
						"NORMAL":9,
						"TEXCOORD_0":10
					},
					"indices":11,
					"material":2
				},
				{
					"attributes":{
						"POSITION":12,
						"NORMAL":13,
						"TEXCOORD_0":14
					},
					"indices":15,
					"material":3
				}
			]
		}
	],
	"accessors":[
		{
			"bufferView":0,
			"componentType":5126,
			"count":242,
			"max":[
				0.5,
				0.3999999761581421,
				0.5
			],
			"min":[
				-0.6159105896949768,
				-0.5,
				-0.5
			],
			"type":"VEC3"
		},
		{
			"bufferView":1,
			"componentType":5126,
			"count":242,
			"type":"VEC3"
		},
		{
			"bufferView":2,
			"componentType":5126,
			"count":242,
			"type":"VEC2"
		},
		{
			"bufferView":3,
			"componentType":5123,
			"count":468,
			"type":"SCALAR"
		},
		{
			"bufferView":4,
			"componentType":5126,
			"count":66,
			"max":[
				0.08660253882408142,
				0.10000000149011612,
				0.10000000149011612
			],
			"min":[
				-0.08660253882408142,
				-0.10000000149011612,
				-0.10000000149011612
			],
			"type":"VEC3"
		},
		{
			"bufferView":5,
			"componentType":5126,
			"count":66,
			"type":"VEC3"
		},
		{
			"bufferView":6,
			"componentType":5126,
			"count":66,
			"type":"VEC2"
		},
		{
			"bufferView":7,
			"componentType":5123,
			"count":138,
			"type":"SCALAR"
		},
		{
			"bufferView":8,
			"componentType":5126,
			"count":74,
			"max":[
				0.10035702586174011,
				0.11818931996822357,
				0.11588231474161148
			],
			"min":[
				-0.10035702586174011,
				-0.06666666269302368,
				-0.11588231474161148
			],
			"type":"VEC3"
		},
		{
			"bufferView":9,
			"componentType":5126,
			"count":74,
			"type":"VEC3"
		},
		{
			"bufferView":10,
			"componentType":5126,
			"count":74,
			"type":"VEC2"
		},
		{
			"bufferView":11,
			"componentType":5123,
			"count":156,
			"type":"SCALAR"
		},
		{
			"bufferView":12,
			"componentType":5126,
			"count":12,
			"max":[
				0,
				0.044965244829654694,
				0.09552133083343506
			],
			"min":[
				-0.08272389322519302,
				0.01649518311023712,
				-0.09552133083343506
			],
			"type":"VEC3"
		},
		{
			"bufferView":13,
			"componentType":5126,
			"count":12,
			"type":"VEC3"
		},
		{
			"bufferView":14,
			"componentType":5126,
			"count":12,
			"type":"VEC2"
		},
		{
			"bufferView":15,
			"componentType":5123,
			"count":18,
			"type":"SCALAR"
		}
	],
	"bufferViews":[
		{
			"buffer":0,
			"byteLength":2904,
			"byteOffset":0,
			"target":34962
		},
		{
			"buffer":0,
			"byteLength":2904,
			"byteOffset":2904,
			"target":34962
		},
		{
			"buffer":0,
			"byteLength":1936,
			"byteOffset":5808,
			"target":34962
		},
		{
			"buffer":0,
			"byteLength":936,
			"byteOffset":7744,
			"target":34963
		},
		{
			"buffer":0,
			"byteLength":792,
			"byteOffset":8680,
			"target":34962
		},
		{
			"buffer":0,
			"byteLength":792,
			"byteOffset":9472,
			"target":34962
		},
		{
			"buffer":0,
			"byteLength":528,
			"byteOffset":10264,
			"target":34962
		},
		{
			"buffer":0,
			"byteLength":276,
			"byteOffset":10792,
			"target":34963
		},
		{
			"buffer":0,
			"byteLength":888,
			"byteOffset":11068,
			"target":34962
		},
		{
			"buffer":0,
			"byteLength":888,
			"byteOffset":11956,
			"target":34962
		},
		{
			"buffer":0,
			"byteLength":592,
			"byteOffset":12844,
			"target":34962
		},
		{
			"buffer":0,
			"byteLength":312,
			"byteOffset":13436,
			"target":34963
		},
		{
			"buffer":0,
			"byteLength":144,
			"byteOffset":13748,
			"target":34962
		},
		{
			"buffer":0,
			"byteLength":144,
			"byteOffset":13892,
			"target":34962
		},
		{
			"buffer":0,
			"byteLength":96,
			"byteOffset":14036,
			"target":34962
		},
		{
			"buffer":0,
			"byteLength":36,
			"byteOffset":14132,
			"target":34963
		}
	],
	"buffers":[
		{
			"byteLength":14168,
			"uri":"NightShelf.bin"
		}
	]
}
