{
	"asset":{
		"generator":"Khronos glTF Blender I/O v4.5.47",
		"version":"2.0"
	},
	"scene":0,
	"scenes":[
		{
			"name":"Scene",
			"nodes":[
				0
			]
		}
	],
	"nodes":[
		{
			"mesh":0,
			"name":"Cube.004",
			"translation":[
				0,
				0.5,
				-4.5
			]
		}
	],
	"materials":[
		{
			"doubleSided":true,
			"name":"Wood",
			"pbrMetallicRoughness":{
				"baseColorFactor":[
					0.800000011920929,
					0.800000011920929,
					0.800000011920929,
					1
				],
				"metallicFactor":0,
				"roughnessFactor":0.8090909123420715
			}
		}
	],
	"meshes":[
		{
			"name":"Cube.007",
			"primitives":[
				{
					"attributes":{
						"POSITION":0,
						"NORMAL":1,
						"TEXCOORD_0":2
					},
					"indices":3,
					"material":0
				}
			]
		}
	],
	"accessors":[
		{
			"bufferView":0,
			"componentType":5126,
			"count":500,
			"max":[
				3.9997966289520264,
				2.3972508907318115,
				0.4999723434448242
			],
			"min":[
				-3.9997966289520264,
				-0.4998554587364197,
				-0.49997684359550476
			],
			"type":"VEC3"
		},
		{
			"bufferView":1,
			"componentType":5126,
			"count":500,
			"type":"VEC3"
		},
		{
			"bufferView":2,
			"componentType":5126,
			"count":500,
			"type":"VEC2"
		},
		{
			"bufferView":3,
			"componentType":5123,
			"count":924,
			"type":"SCALAR"
		}
	],
	"bufferViews":[
		{
			"buffer":0,
			"byteLength":6000,
			"byteOffset":0,
			"target":34962
		},
		{
			"buffer":0,
			"byteLength":6000,
			"byteOffset":6000,
			"target":34962
		},
		{
			"buffer":0,
			"byteLength":4000,
			"byteOffset":12000,
			"target":34962
		},
		{
			"buffer":0,
			"byteLength":1848,
			"byteOffset":16000,
			"target":34963
		}
	],
	"buffers":[
		{
			"byteLength":17848,
			"uri":"Shelfs.bin"
		}
	]
}
