{
	"asset":{
		"generator":"Khronos glTF Blender I/O v4.5.47",
		"version":"2.0"
	},
	"scene":0,
	"scenes":[
		{
			"name":"Scene",
			"nodes":[
				0,
				1,
				2
			]
		}
	],
	"nodes":[
		{
			"mesh":0,
			"name":"Cube.005",
			"translation":[
				-4,
				0.5,
				4
			]
		},
		{
			"mesh":1,
			"name":"Cylinder",
			"translation":[
				-3.233067035675049,
				0.9999997615814209,
				3.2522873878479004
			]
		},
		{
			"mesh":2,
			"name":"Cube.010",
			"translation":[
				-3.233067274093628,
				0.899999737739563,
				3.2522876262664795
			]
		}
	],
	"materials":[
		{
			"doubleSided":true,
			"name":"Wood",
			"pbrMetallicRoughness":{
				"baseColorFactor":[
					0.800000011920929,
					0.800000011920929,
					0.800000011920929,
					1
				],
				"metallicFactor":0,
				"roughnessFactor":0.8090909123420715
			}
		},
		{
			"doubleSided":true,
			"name":"Matrice",
			"pbrMetallicRoughness":{
				"baseColorFactor":[
					0.800000011920929,
					0.800000011920929,
					0.800000011920929,
					1
				],
				"metallicFactor":0,
				"roughnessFactor":0.8090909123420715
			}
		},
		{
			"doubleSided":true,
			"name":"Lether",
			"pbrMetallicRoughness":{
				"baseColorFactor":[
					0.800000011920929,
					0.800000011920929,
					0.800000011920929,
					1
				],
				"metallicFactor":0,
				"roughnessFactor":0.8090909123420715
			}
		}
	],
	"meshes":[
		{
			"name":"Cube.008",
			"primitives":[
				{
					"attributes":{
						"POSITION":0,
						"NORMAL":1,
						"TEXCOORD_0":2
					},
					"indices":3,
					"material":0
				}
			]
		},
		{
			"name":"Cylinder",
			"primitives":[
				{
					"attributes":{
						"POSITION":4,
						"NORMAL":5,
						"TEXCOORD_0":6
					},
					"indices":7,
					"material":1
				}
			]
		},
		{
			"name":"Cube.005",
			"primitives":[
				{
					"attributes":{
						"POSITION":8,
						"NORMAL":9,
						"TEXCOORD_0":10
					},
					"indices":11,
					"material":2
				}
			]
		}
	],
	"accessors":[
		{
			"bufferView":0,
			"componentType":5126,
			"count":86,
			"max":[
				1.3333332538604736,
				0.3999999761581421,
				0.5
			],
			"min":[
				-0.5,
				-0.5,
				-1.3333332538604736
			],
			"type":"VEC3"
		},
		{
			"bufferView":1,
			"componentType":5126,
			"count":86,
			"type":"VEC3"
		},
		{
			"bufferView":2,
			"componentType":5126,
			"count":86,
			"type":"VEC2"
		},
		{
			"bufferView":3,
			"componentType":5123,
			"count":144,
			"type":"SCALAR"
		},
		{
			"bufferView":4,
			"componentType":5126,
			"count":72,
			"max":[
				0.3464101552963257,
				0.10000000149011612,
				0.4000000059604645
			],
			"min":[
				-0.3464101552963257,
				-0.10000000894069672,
				-0.4000000059604645
			],
			"type":"VEC3"
		},
		{
			"bufferView":5,
			"componentType":5126,
			"count":72,
			"type":"VEC3"
		},
		{
			"bufferView":6,
			"componentType":5126,
			"count":72,
			"type":"VEC2"
		},
		{
			"bufferView":7,
			"componentType":5123,
			"count":132,
			"type":"SCALAR"
		},
		{
			"bufferView":8,
			"componentType":5126,
			"count":57,
			"max":[
				0.30641043186187744,
				0.2000000774860382,
				0.3538118600845337
			],
			"min":[
				-0.30640995502471924,
				0.019999995827674866,
				-0.3538123369216919
			],
			"type":"VEC3"
		},
		{
			"bufferView":9,
			"componentType":5126,
			"count":57,
			"type":"VEC3"
		},
		{
			"bufferView":10,
			"componentType":5126,
			"count":57,
			"type":"VEC2"
		},
		{
			"bufferView":11,
			"componentType":5123,
			"count":150,
			"type":"SCALAR"
		}
	],
	"bufferViews":[
		{
			"buffer":0,
			"byteLength":1032,
			"byteOffset":0,
			"target":34962
		},
		{
			"buffer":0,
			"byteLength":1032,
			"byteOffset":1032,
			"target":34962
		},
		{
			"buffer":0,
			"byteLength":688,
			"byteOffset":2064,
			"target":34962
		},
		{
			"buffer":0,
			"byteLength":288,
			"byteOffset":2752,
			"target":34963
		},
		{
			"buffer":0,
			"byteLength":864,
			"byteOffset":3040,
			"target":34962
		},
		{
			"buffer":0,
			"byteLength":864,
			"byteOffset":3904,
			"target":34962
		},
		{
			"buffer":0,
			"byteLength":576,
			"byteOffset":4768,
			"target":34962
		},
		{
			"buffer":0,
			"byteLength":264,
			"byteOffset":5344,
			"target":34963
		},
		{
			"buffer":0,
			"byteLength":684,
			"byteOffset":5608,
			"target":34962
		},
		{
			"buffer":0,
			"byteLength":684,
			"byteOffset":6292,
			"target":34962
		},
		{
			"buffer":0,
			"byteLength":456,
			"byteOffset":6976,
			"target":34962
		},
		{
			"buffer":0,
			"byteLength":300,
			"byteOffset":7432,
			"target":34963
		}
	],
	"buffers":[
		{
			"byteLength":7732,
			"uri":"Table.bin"
		}
	]
}
